<?xml version="1.0" encoding="utf-8"?>
<!-- Generator: Adobe Illustrator 19.0.0, SVG Export Plug-In . SVG Version: 6.00 Build 0)  -->
<svg version="1.1" id="Layer_1" xmlns="http://www.w3.org/2000/svg" xmlns:xlink="http://www.w3.org/1999/xlink" x="0px" y="0px"
	 viewBox="0 0 199.1 256.6" style="enable-background:new 0 0 199.1 256.6;" xml:space="preserve">
<style type="text/css">
	.st0{fill:#FFCF06;}
	.st1{fill:#429B8F;}
	.st2{fill:#5B1519;}
	.st3{fill:#EE7C32;}
	.st4{fill:#FFFFFF;}
	.st5{fill:#A2BF36;}
</style>
<g>
	<g>
		<g>
			<path class="st0" d="M13.9,85.9h19.9l7.1,14.3c0.5,1,1.5,1.6,2.6,1.6c1.1,0,2.1-0.6,2.6-1.6l7.1-14.3h1.5c1.6,0,2.9-1.3,2.9-2.9
				c0-1.6-1.3-2.9-2.9-2.9h-3.3c-1.1,0-2.1,0.6-2.6,1.6l-5.3,10.7l-5.3-10.7c-0.5-1-1.5-1.6-2.6-1.6H13.9c-0.2,0-0.4-0.2-0.4-0.4
				V6.3c0-0.2,0.2-0.4,0.4-0.4h59.3c0.2,0,0.4,0.2,0.4,0.4v31.8c0,1.6,1.3,2.9,2.9,2.9c1.6,0,2.9-1.3,2.9-2.9V6.3
				c0-3.5-2.8-6.3-6.3-6.3H13.9c-3.5,0-6.3,2.8-6.3,6.3v73.3C7.6,83,10.4,85.9,13.9,85.9L13.9,85.9z M13.9,85.9"/>
			<path class="st0" d="M43.5,11.7c-8.1,0-14.7,6.6-14.7,14.7c0,8.1,6.6,14.7,14.7,14.7c8.1,0,14.7-6.6,14.7-14.7
				C58.2,18.3,51.6,11.7,43.5,11.7L43.5,11.7z M43.5,35.2c-4.9,0-8.8-4-8.8-8.8c0-4.9,4-8.8,8.8-8.8c4.9,0,8.8,4,8.8,8.8
				C52.4,31.3,48.4,35.2,43.5,35.2L43.5,35.2z M43.5,35.2"/>
			<path class="st0" d="M43.5,52.8c3.5,0,6.8,1,9.7,2.8c1.4,0.9,3.2,0.4,4-0.9c0.9-1.4,0.4-3.2-0.9-4c-3.8-2.4-8.3-3.7-12.8-3.7
				c-13.4,0-24.2,10.9-24.2,24.2c0,1.6,1.3,2.9,2.9,2.9h32.5c1.6,0,2.9-1.3,2.9-2.9c0-1.6-1.3-2.9-2.9-2.9H25.4
				C26.8,59.5,34.4,52.8,43.5,52.8L43.5,52.8z M43.5,52.8"/>
			<path class="st1" d="M185.2,0h-59.3c-3.5,0-6.3,2.8-6.3,6.3v31.8c0,1.6,1.3,2.9,2.9,2.9c1.6,0,2.9-1.3,2.9-2.9V6.3
				c0-0.2,0.2-0.4,0.4-0.4h59.3c0.2,0,0.4,0.2,0.4,0.4v73.3c0,0.2-0.2,0.4-0.4,0.4h-21.7c-1.1,0-2.1,0.6-2.6,1.6l-5.3,10.7
				l-5.3-10.7c-0.5-1-1.5-1.6-2.6-1.6h-3.3c-1.6,0-2.9,1.3-2.9,2.9c0,1.6,1.3,2.9,2.9,2.9h1.5l7.1,14.3c0.5,1,1.5,1.6,2.6,1.6
				c1.1,0,2.1-0.6,2.6-1.6l7.1-14.3h19.9c3.5,0,6.3-2.8,6.3-6.3V6.3C191.5,2.8,188.6,0,185.2,0L185.2,0z M185.2,0"/>
			<path class="st1" d="M155.5,11.7c-8.1,0-14.7,6.6-14.7,14.7c0,8.1,6.6,14.7,14.7,14.7c8.1,0,14.7-6.6,14.7-14.7
				C170.2,18.3,163.6,11.7,155.5,11.7L155.5,11.7z M155.5,35.2c-4.9,0-8.8-4-8.8-8.8c0-4.9,3.9-8.8,8.8-8.8s8.8,4,8.8,8.8
				C164.3,31.3,160.4,35.2,155.5,35.2L155.5,35.2z M155.5,35.2"/>
			<path class="st1" d="M141.4,71.2c0,1.6,1.3,2.9,2.9,2.9h32.5c1.6,0,2.9-1.3,2.9-2.9c0-13.4-10.9-24.2-24.2-24.2
				c-4.6,0-9,1.3-12.8,3.7c-1.4,0.9-1.8,2.7-0.9,4c0.9,1.4,2.7,1.8,4,0.9c2.9-1.8,6.3-2.8,9.7-2.8c9.1,0,16.7,6.7,18.1,15.4h-29.3
				C142.7,68.3,141.4,69.6,141.4,71.2L141.4,71.2z M141.4,71.2"/>
			<path class="st2" d="M63.6,53.2v73.3c0,3.5,2.8,6.3,6.3,6.3h19.9l7.1,14.3c0.5,1,1.5,1.6,2.6,1.6c1.1,0,2.1-0.6,2.6-1.6l7.1-14.3
				h19.9c3.5,0,6.3-2.8,6.3-6.3V53.2c0-3.5-2.8-6.3-6.3-6.3H69.9C66.4,46.9,63.6,49.7,63.6,53.2L63.6,53.2z M129.6,53.2v73.3
				c0,0.2-0.2,0.4-0.4,0.4h-21.7c-1.1,0-2.1,0.6-2.6,1.6l-5.3,10.7l-5.3-10.7c-0.5-1-1.5-1.6-2.6-1.6H69.9c-0.2,0-0.4-0.2-0.4-0.4
				V53.2c0-0.2,0.2-0.4,0.4-0.4h59.3C129.4,52.8,129.6,53,129.6,53.2L129.6,53.2z M129.6,53.2"/>
			<path class="st2" d="M99.5,88c8.1,0,14.7-6.6,14.7-14.7c0-8.1-6.6-14.7-14.7-14.7c-8.1,0-14.7,6.6-14.7,14.7
				C84.8,81.4,91.4,88,99.5,88L99.5,88z M99.5,64.5c4.9,0,8.8,4,8.8,8.8c0,4.9-4,8.8-8.8,8.8c-4.9,0-8.8-4-8.8-8.8
				C90.7,68.5,94.7,64.5,99.5,64.5L99.5,64.5z M99.5,64.5"/>
			<path class="st2" d="M78.2,121h42.6c1.6,0,2.9-1.3,2.9-2.9c0-13.4-10.9-24.2-24.2-24.2c-13.4,0-24.2,10.9-24.2,24.2
				C75.3,119.7,76.6,121,78.2,121L78.2,121z M99.5,99.7c9.1,0,16.7,6.7,18.1,15.4H81.4C82.8,106.4,90.4,99.7,99.5,99.7L99.5,99.7z
				 M99.5,99.7"/>
		</g>
		<g>
			<path class="st3" d="M136.7,225.6H62.3c-2.4,0-4.4-2-4.4-4.4v-54c0-2.4,2-4.4,4.4-4.4h74.4c2.4,0,4.4,2,4.4,4.4v54
				C141.1,223.6,139.2,225.6,136.7,225.6L136.7,225.6z M136.7,225.6"/>
			<path class="st4" d="M89.4,179l26.3,15.1l-26.3,15.2V179z M89.4,179"/>
		</g>
	</g>
	<ellipse class="st5" cx="99.5" cy="249.4" rx="99.5" ry="7.3"/>
</g>
</svg>
