<?xml version="1.0" encoding="utf-8"?>
<!-- Generator: Adobe Illustrator 19.0.0, SVG Export Plug-In . SVG Version: 6.00 Build 0)  -->
<svg version="1.1" xmlns="http://www.w3.org/2000/svg" xmlns:xlink="http://www.w3.org/1999/xlink" x="0px" y="0px"
	 viewBox="0 0 267.5 240.5" enable-background="new 0 0 267.5 240.5" xml:space="preserve">
<g id="Layer_2">
	<circle fill="#6CC8BF" cx="90.8" cy="127.9" r="90.8"/>
</g>
<g id="Layer_1">
	<path fill="#5B1519" d="M133.8,240.5c-8.5,0-17.4-0.3-26.6-0.8l0,0l-0.1,0c-0.1,0-0.2,0-0.2,0c-0.1,0-0.2-0.1-0.3-0.1
		c-7.4-0.5-14.7-1.1-21.7-1.9l-0.1,0l-0.1,0c-0.1,0-0.2,0-0.3,0c-0.1,0-0.2,0-0.3-0.1c-0.1,0-0.2-0.1-0.3-0.1
		c-44-5.1-70.2-15.4-70.3-27.7V179l0.1-0.5c0.1-0.8,0.2-1.7,0.5-2.6l0.3-0.7l-0.7-0.3c-9-4.3-13.6-9.2-13.6-14.4v-31l0-0.4
		c0.4-7.2,9-12.8,26.2-17.2l0.6-0.2V80.4l0.1-0.5c0-0.7,0.2-1.4,0.4-2.1l0.2-0.8l-0.8-0.2C9.4,71.5,0.2,64.8,0.1,57.4V26.6l0.1-0.5
		C1.5,5.5,76.3,0,120.4,0c44,0,118.9,5.5,120.2,26.1l0,0.8h0v30.5c0,1.3-0.3,2.6-0.9,3.8l-0.4,0.9l1,0.2
		c17.9,4.5,26.8,10.2,27.2,17.5l0,0.8v30.5c0,7.3-9.1,13.9-26.3,19.2l-0.6,0.2v29.9c0,1.2-0.3,2.5-0.8,3.7l-0.3,0.8l0.8,0.3
		c9,3.7,13.4,8,13.7,13.2l0,0.8h0v30.5c0,12.2-26.3,22.6-70.2,27.7c-0.2,0-0.3,0.1-0.4,0.1c-0.1,0-0.2,0.1-0.3,0.1
		c-0.1,0-0.2,0-0.3,0h0l0,0c-7,0.8-14.3,1.4-21.7,1.9c-0.1,0-0.3,0-0.4,0.1c-0.1,0-0.1,0-0.2,0l0,0l0,0
		C151.3,240.2,142.3,240.5,133.8,240.5z M110.6,232.6l0.8,0c5.9,0.3,11.9,0.5,18,0.5l0.8,0v-24.1l-0.8,0c-1.2,0-2.5,0-3.7-0.1
		c0,0-0.5,0-0.7,0c-4.7-0.1-9.2-0.2-13.5-0.4l-0.9,0V232.6z M156.2,208.6c-4.2,0.2-8.8,0.3-13.5,0.4c0,0-0.5,0-0.7,0
		c-1.2,0-2.5,0-3.7,0.1l-0.8,0v24.1l0.8,0c6.1-0.1,12.1-0.2,18-0.5l0.8,0v-24.1L156.2,208.6z M88.1,230.8l0.8,0.1
		c4.5,0.5,9,0.9,13.5,1.2l0.9,0.1v-24.1l-0.8-0.1c-4.6-0.3-9.1-0.7-13.4-1.1l-0.9-0.1V230.8z M178.6,207c-4.4,0.4-8.9,0.8-13.4,1.1
		l-0.8,0.1v24.1l0.9-0.1c4.5-0.3,9-0.7,13.5-1.2l0.8-0.1v-24L178.6,207z M65.7,227.7l0.7,0.1c4.2,0.7,8.8,1.4,13.5,2.1l1,0.1v-23.9
		l-0.7-0.1c-4.6-0.6-9.1-1.2-13.4-1.9l-1-0.2V227.7z M201,204.1c-4.3,0.7-8.8,1.3-13.4,1.9l-0.7,0.1V230l1-0.1
		c4.7-0.6,9.3-1.3,13.5-2.1l0.7-0.1v-23.7L201,204.1z M223.3,199.4c-4.1,1.1-8.6,2.1-13.4,3.1l-0.7,0.1v23.6l1-0.2
		c4.9-1,9.4-2.2,13.5-3.3l0.6-0.2v-23.4L223.3,199.4z M43.3,222.5l0.6,0.2c4.1,1.2,8.6,2.3,13.5,3.3l1,0.2v-23.6l-0.7-0.1
		c-4.7-0.9-9.3-2-13.4-3.1l-1.1-0.3V222.5z M245.5,190.6c-3.4,2.2-7.9,4.2-13.3,6.1l-0.6,0.2v23.3l1.1-0.4c6.4-2.4,14-6.1,14-9.9
		v-20.1L245.5,190.6z M20.9,209.9c0,3.8,7.6,7.5,14,9.9l1.1,0.4v-23.3l-0.6-0.2c-5.4-1.9-9.8-3.9-13.3-6.1l-1.3-0.8V209.9z
		 M21,179.4c1.3,4.7,13.2,9,20.1,11.1c10.8,3.3,34.4,9.1,72.4,10.8c1.6,0.1,3.2,0.1,4.9,0.2c1.3,0,2.7,0.1,4,0.1
		c4.2,0.1,7.9,0.1,11.4,0.1c3.4,0,7.1,0,11.4-0.1c1.4,0,2.7-0.1,4.1-0.1c1.6-0.1,3.2-0.1,4.8-0.2c38-1.7,61.7-7.5,72.4-10.8
		c7.2-2.2,19.4-6.7,20.2-11.5l0-0.2l0-0.2c-0.2-0.9-1.8-4-12.1-7.7l-0.4-0.1l-0.4,0.3c-0.2,0.2-0.5,0.3-0.7,0.5
		c-0.2,0.1-0.4,0.2-0.6,0.3c-0.5,0.3-0.9,0.6-1.4,0.9l-0.3,0.2c-0.3,0.2-0.6,0.4-0.9,0.5c-7.4,4.1-18.2,7.6-32.3,10.5
		c-0.3,0.1-0.6,0.1-0.9,0.2c-1.4,0.3-2.8,0.6-4.3,0.8c-7,1.3-14.6,2.4-22.5,3.4c-0.1,0-0.2,0-0.2,0l-0.1,0l0,0
		c-7.3,0.8-14.8,1.5-22.2,1.9l0,0c-6.3,0.4-12.8,0.6-19.3,0.7c-2.9,0.1-5.3,0.1-7.5,0.1c-1.9,0-3.7,0-5.7-0.1
		c-7.1-0.1-14.2-0.3-21.1-0.7l-0.3,0l0,0c-22.5-1.3-43-4.3-59.3-8.4l-0.5-0.1c-0.6-0.1-1.2-0.3-1.7-0.4c-0.5-0.1-1-0.3-1.4-0.4
		c-1.3-0.3-2.5-0.7-3.7-1.1c-0.1,0-0.3-0.1-0.4-0.1c-1.6-0.5-2.9-0.9-4.2-1.4l-1.5-0.5L21,179.4z M97.1,183.3l0.8,0
		c2.6,0.1,5,0.2,7.3,0.3l0.8,0c2,0.1,4.1,0.1,6.1,0.1c0.3,0,0.5,0,0.8,0l0.4,0c0.5,0,1.1,0,1.6,0l1.9,0v-24.1l-0.8,0
		c-1.2,0-2.5,0-3.7-0.1l-0.7,0c-4.7-0.1-9.2-0.2-13.5-0.4l-0.9,0V183.3z M142.8,159.2c-4.3,0.2-8.8,0.3-13.5,0.4l-0.7,0
		c-1.2,0-2.5,0-3.7,0.1l-0.8,0v24.1l1.8,0c1.3,0,2.6,0,3.9,0c0,0,1.5,0,2,0c2.9-0.1,5.6-0.2,8.2-0.3c1,0,1.9-0.1,2.9-0.1l0.8,0
		v-24.1L142.8,159.2z M165.1,157.6c-4.3,0.4-8.8,0.8-13.4,1.1l-0.8,0.1v24.1l0.9-0.1c1-0.1,2-0.1,3-0.2c0.7,0,1.3-0.1,2-0.2
		c2.7-0.2,5.5-0.5,8.5-0.8l0.8-0.1v-24L165.1,157.6z M74.7,181.5l3.1,0.3c3.5,0.3,7.2,0.7,11.1,0.9l0.9,0.1v-24l-0.8-0.1
		c-4.5-0.3-9.1-0.7-13.4-1.1l-0.9-0.1V181.5z M52.3,178.3l0.7,0.1c4.2,0.7,8.8,1.4,13.5,2.1l1,0.1v-23.9l-0.7-0.1
		c-4.5-0.5-9-1.2-13.4-1.9l-1-0.2V178.3z M187.5,154.8c-4.3,0.7-8.9,1.3-13.4,1.9l-0.7,0.1v23.9l1-0.1c4.6-0.6,9.2-1.3,13.5-2.1
		l0.7-0.1v-23.7L187.5,154.8z M29.8,173.2l0.6,0.2c0.1,0,0.3,0.1,0.4,0.1c0.3,0.1,0.6,0.2,0.9,0.3c0.3,0.1,0.5,0.1,0.8,0.2
		c3.6,1,7.4,1.9,11.4,2.8l1,0.2v-23.6l-0.7-0.1c-4.8-0.9-9.3-2-13.4-3.1l-1.1-0.3V173.2z M209.8,150.1c-4.1,1.1-8.6,2.1-13.4,3.1
		l-0.7,0.1v23.6l1-0.2c4.9-1,9.4-2.2,13.5-3.3l0.6-0.2v-23.4L209.8,150.1z M232,141.3c-3.5,2.2-7.9,4.2-13.3,6.1l-0.6,0.2v23.2
		l1.1-0.4c5.4-2.1,9.3-4.2,11.7-6.3l1.6-1.4l0.1-0.1c0.4-0.7,0.6-1.3,0.6-1.9v-20.1L232,141.3z M22.6,170.8v-23.2l-0.6-0.2
		c-5.4-1.9-9.8-3.9-13.3-6.1l-1.3-0.8v20.1c0,3.4,6.2,6.7,11.4,8.8l0.5,0.2l0.1-0.1L22.6,170.8z M29.8,118.7
		c-15.2,3.7-21.5,7.9-22.3,10.6l-0.1,0.2l0,0.2c0.6,4.9,12.9,9.4,20.2,11.6c10.7,3.3,34.4,9.1,72.4,10.8l0.8,0
		c1.4,0.1,2.7,0.1,4.1,0.2l0.2,0c1.3,0,2.6,0.1,3.8,0.1c4.2,0.1,7.9,0.1,11.4,0.1c3,0,5.9,0,8.6-0.1c0,0,2.6-0.1,3.3-0.1
		c0.7,0,3-0.1,3-0.1c29.8-1,58.2-5,77.7-11c5.5-1.7,10-3.5,13.4-5.2l-0.6-1.6c-14.8,3.2-32.7,5.5-51.6,6.6l-0.1,0
		c-6.1,0.4-11.7,0.6-17.4,0.7c-3.1,0.1-6.3,0.1-9.5,0.1c-2.5,0-5.2,0-8.3-0.1c-6.1-0.1-12.3-0.3-18.6-0.7l-0.2,0l0,0
		c-18.4-1.1-35.9-3.3-50.5-6.4c-1.2-0.2-2.4-0.5-3.5-0.8c0,0-0.9-0.2-1.1-0.2c-16.9-3.9-28.7-8.9-34.3-14.5c0,0-0.1-0.1-0.2-0.2
		l-0.3-0.4L29.8,118.7z M124,134l0.8,0l0.5,0c3.6,0.2,6.8,0.3,9.9,0.4l1,0c1.6,0,3.3,0.1,4.9,0.1l2.4,0v-24.1l-0.8,0
		c-1.2,0-2.5,0-3.7-0.1l-0.7,0c-4.6-0.1-9.2-0.2-13.5-0.4l-0.9,0V134z M169.7,109.9c-4.3,0.2-8.8,0.3-13.5,0.4l-0.7,0
		c-1.2,0-2.5,0-3.7,0.1l-0.8,0v24.1l0.9,0c6.3-0.1,12.3-0.2,18-0.5l0.8,0v-24L169.7,109.9z M101.6,132.2l0.8,0.1c0.1,0,0.1,0,0.2,0
		l1.9,0.2c2.7,0.3,5.5,0.5,8.4,0.7l1.8,0.1l1.1,0.1l0.9,0.1v-24l-0.8-0.1c-4.5-0.3-9-0.7-13.4-1.1l-0.9-0.1V132.2z M192,108.3
		c-4.2,0.4-8.8,0.8-13.4,1.1l-0.8,0.1v24l0.9-0.1c0.6,0,1.3-0.1,1.9-0.1c1.1-0.1,2.1-0.1,3.2-0.2l0.5,0c2.7-0.2,5.3-0.5,7.9-0.8
		l0.8-0.1l0-0.8v-23.2L192,108.3z M79.2,129l2,0.3c1.3,0.2,2.5,0.4,3.9,0.7c0.1,0,0.2,0,0.3,0c2.4,0.4,4.9,0.7,8.1,1.2l1,0.1v-23.9
		l-0.7-0.1c-4.6-0.6-9.1-1.2-13.4-1.9l-1-0.2V129z M214.4,105.5c-4.3,0.7-8.9,1.3-13.4,1.9l-0.7,0.1v23.9l1.9-0.2
		c0.8-0.1,1.7-0.2,2.5-0.3c1.2-0.2,2.4-0.3,3.6-0.5c2.1-0.3,4.2-0.7,6-1l1.1-0.2v-23.7L214.4,105.5z M236.7,100.8
		c-4.1,1.1-8.6,2.1-13.4,3.1l-0.7,0.1v23.6l1-0.2c0,0,0.9-0.2,1.1-0.2c1.2-0.3,2.3-0.5,3.4-0.8c2.9-0.7,5.1-1.2,7-1.8l2.6-0.7v-23.4
		L236.7,100.8z M56.8,123.8l0.6,0.2c4.1,1.2,8.6,2.3,13.5,3.4l1,0.2V104l-0.7-0.1c-4.8-0.9-9.3-2-13.4-3.1l-1.1-0.3V123.8z
		 M258.9,92c-3.5,2.2-7.9,4.2-13.3,6.1l-0.6,0.2v23.3l1.1-0.4c6.4-2.4,14-6.1,14-9.9V91.2L258.9,92z M34.3,111.2
		c0,0.2,0,0.3,0.1,0.5l0,0.3l0.4,0.6c2,3.4,8.4,6.4,13.5,8.3l1.1,0.4V98.3l-0.6-0.2c-5.4-1.9-9.8-3.9-13.3-6.1l-1.3-0.8V111.2z
		 M34.6,79.6c-0.1,0.2-0.1,0.3-0.1,0.4l0,0.1l0,0.2c0.8,4.8,13,9.3,20.2,11.5C65.3,95.2,89,101,127,102.7l0.8,0
		c1.3,0.1,2.7,0.1,4.1,0.2l0.1,0c1.3,0,2.6,0.1,4,0.1c4.3,0.1,7.9,0.1,11.4,0.1c3.4,0,7,0,11.4-0.1c1.4,0,2.7-0.1,4.1-0.1
		c1.6-0.1,3.3-0.1,4.9-0.2c37.9-1.7,61.6-7.5,72.4-10.8c7.3-2.2,19.6-6.7,20.2-11.6l0-0.2l0-0.2c-0.8-3-8.2-7.6-26.5-11.6l-0.3-0.1
		l-0.3,0.2c-0.1,0.1-0.3,0.2-0.4,0.3c-0.2,0.1-0.3,0.2-0.5,0.3c-0.5,0.3-1,0.6-1.5,0.9l-0.5,0.3c-0.3,0.2-0.6,0.3-0.9,0.5
		c-1,0.5-2.1,1.1-3.5,1.7c-0.2,0.1-1,0.4-1,0.4c-1.2,0.5-2.4,1-3.6,1.5l-0.8,0.3c-1.5,0.5-3,1.1-4.6,1.6c-0.3,0.1-0.7,0.2-1,0.3
		l-0.7,0.2c-0.9,0.3-1.9,0.6-2.8,0.8c-21.3,6.1-51.8,9.9-83.6,10.4c-2.6,0-5,0.1-7.2,0.1c-3.2,0-6.6,0-10.1-0.1
		c-5.4-0.1-10.9-0.3-16.7-0.7l-0.2,0l0,0c0,0-0.1,0-0.1,0c-7.5-0.4-15-1.1-22.1-1.9c0,0-0.1,0-0.1,0c-10.6-1.2-20.4-2.8-29.2-4.7
		c-1.8-0.4-3.6-0.8-5.4-1.2c-0.2,0-0.3-0.1-0.5-0.1c-0.2,0-0.3-0.1-0.5-0.1L34.9,79L34.6,79.6z M142.8,56.1
		c-4.3,0.2-8.9,0.3-13.5,0.4l-0.7,0c-1.2,0-2.5,0-3.7,0.1l-0.8,0v24.1l2.5,0c1.1,0,2.2,0,3.2,0l1.5,0c3.3-0.1,6.3-0.2,9.2-0.3l0.2,0
		c0.4,0,0.8,0,1.1-0.1c0.4,0,0.7,0,1.1-0.1l0.8,0V56.1L142.8,56.1z M97.1,80.1l0.8,0c5.6,0.3,11.5,0.5,18,0.5l0.8,0V56.6l-0.8,0
		c-1.2,0-2.5,0-3.7-0.1c0,0-0.6,0-0.7,0c-4.6-0.1-9.1-0.2-13.5-0.4l-0.9,0V80.1z M165.1,54.5c-4.3,0.4-8.9,0.8-13.4,1.1l-0.8,0.1v24
		l0.9-0.1c4.5-0.3,9.1-0.7,13.5-1.2l0.8-0.1V54.4L165.1,54.5z M74.7,78.3l0.8,0.1c4,0.4,8.4,0.8,13.5,1.2l0.9,0.1v-24L89,55.6
		c-4.6-0.3-9.1-0.7-13.4-1.1l-0.9-0.1V78.3z M52.3,75.2l2.2,0.4c2.6,0.4,5.1,0.8,7.6,1.2l1.7,0.2c0.5,0.1,1,0.1,1.5,0.2
		c0.4,0,0.8,0.1,1.2,0.1l1,0.1V53.6l-0.7-0.1c-4.4-0.5-8.9-1.2-13.4-1.9l-1-0.2V75.2z M187.5,51.6c-4.3,0.7-8.9,1.3-13.4,1.9
		l-0.7,0.1v23.9l1-0.1c4.6-0.6,9.2-1.3,13.5-2.1l0.7-0.1V51.5L187.5,51.6z M29.8,70.1l0.6,0.2c1.8,0.5,3.3,0.9,4.9,1.3
		c2.1,0.5,4.4,1.1,7,1.7l2.7,0.6V50.2l-0.7-0.1c-4.8-0.9-9.3-2-13.4-3.1l-1.1-0.3V70.1z M209.8,47c-4.1,1.1-8.6,2.1-13.4,3.1
		l-0.7,0.1v23.6l1-0.2c5-1.1,9.6-2.2,13.5-3.4l0.6-0.2V46.7L209.8,47z M7.4,57.4c0,3.8,7.6,7.5,14,9.9l1.1,0.4V44.4L22,44.2
		c-5.4-1.9-9.8-3.9-13.3-6.1l-1.3-0.8V57.4z M232,38.2c-3.5,2.2-7.9,4.2-13.3,6.1l-0.6,0.2v23.2l1.1-0.4c4.8-1.9,8.5-3.8,10.9-5.6
		l1.3-1l0.2,0l0.3-0.4c0.8-0.9,1.2-1.9,1.2-2.7V37.3L232,38.2z M120.4,7.3C48,7.3,8.3,18.4,7.5,26.4l0,0.1l0,0.1
		c0.9,4.8,13,9.2,20.2,11.5c10.7,3.3,34.4,9.1,72.4,10.8l0.7,0c1.4,0.1,2.8,0.1,4.2,0.2c1.3,0,2.7,0.1,4.1,0.1
		c4.3,0.1,7.9,0.1,11.4,0.1c3.5,0,7.1,0,11.4-0.1c1.4,0,2.7-0.1,4.1-0.1c1.6-0.1,3.3-0.1,4.9-0.2c37.9-1.7,61.6-7.5,72.4-10.8
		c7.2-2.2,19.3-6.7,20.2-11.5l0-0.1l0-0.1C232.4,18.4,192.7,7.3,120.4,7.3z"/>
</g>
</svg>
