<?xml version="1.0" encoding="utf-8"?>
<!-- Generator: Adobe Illustrator 19.0.0, SVG Export Plug-In . SVG Version: 6.00 Build 0)  -->
<svg version="1.1" id="Layer_1" xmlns="http://www.w3.org/2000/svg" xmlns:xlink="http://www.w3.org/1999/xlink" x="0px" y="0px"
	 viewBox="0 0 206.3 217" style="enable-background:new 0 0 206.3 217;" xml:space="preserve">
<style type="text/css">
	.st0{fill:none;stroke:#5B1519;stroke-width:7;stroke-linecap:round;stroke-miterlimit:10;}
	.st1{fill:#FFFFFF;}
	.st2{fill:#EE7C32;}
	.st3{fill:none;stroke:#5B1519;stroke-width:8;stroke-linecap:round;stroke-miterlimit:10;}
	.st4{fill:#A2BF36;}
</style>
<g>
	<g>
		<path class="st0" d="M7.2,46.2c0-23.5,19.1-42.7,42.7-42.7c23.5,0,42.7,19.1,42.7,42.7c0,23.5-19.1,42.7-42.7,42.7
			C26.4,88.8,7.2,69.7,7.2,46.2z"/>
		<path class="st1" d="M49.9,55.8c-1.4,0-2.5-1.1-2.5-2.5c0-1.9-1.5-3.4-3.4-3.4c-1.9,0-3.4,1.5-3.4,3.4c0,3.9,2.5,7.3,5.9,8.6v1.4
			c0,1.9,1.5,3.4,3.4,3.4c1.9,0,3.4-1.5,3.4-3.4V62c3.5-1.4,5.9-4.7,5.9-8.7c0-6.5-5.3-9-7.8-10.2c-3.1-1.5-4-2.3-4-4.1
			c0-1.4,1.1-2.5,2.5-2.5c1.4,0,2.5,1.1,2.5,2.5c0,1.9,1.5,3.4,3.4,3.4c1.9,0,3.4-1.5,3.4-3.4c0-3.9-2.5-7.3-5.9-8.6v-1.4
			c0-1.9-1.5-3.4-3.4-3.4c-1.9,0-3.4,1.5-3.4,3.4v1.4c-3.5,1.4-5.9,4.7-5.9,8.6c0,6.5,5.3,9,7.8,10.2c3.1,1.5,4,2.3,4,4.1
			C52.4,54.7,51.3,55.8,49.9,55.8L49.9,55.8z M49.9,55.8"/>
		<path class="st1" d="M84,46.2c0-18.8-15.3-34.1-34.1-34.1c-7.8,0-15.4,2.7-21.4,7.6c-6,4.8-10.2,11.6-11.8,19
			c-0.4,1.8,0.7,3.6,2.6,4c1.8,0.4,3.6-0.7,4-2.6c2.8-12.4,14-21.3,26.7-21.3c15.1,0,27.4,12.3,27.4,27.4
			c0,15.1-12.3,27.4-27.4,27.4c-12.7,0-23.9-9-26.7-21.4c-0.4-1.8-2.2-3-4-2.6c-1.8,0.4-3,2.2-2.6,4c1.7,7.4,5.9,14.2,11.8,19
			c6,4.9,13.7,7.6,21.4,7.6C68.7,80.3,84,65,84,46.2L84,46.2z M84,46.2"/>
		<g>
			<path class="st2" d="M201.9,123.2h-74.4c-2.4,0-4.4-2-4.4-4.4v-54c0-2.4,2-4.4,4.4-4.4h74.4c2.4,0,4.4,2,4.4,4.4v54
				C206.3,121.2,204.3,123.2,201.9,123.2L201.9,123.2z M201.9,123.2"/>
			<path class="st1" d="M154.6,76.6l26.3,15.1L154.6,107V76.6z M154.6,76.6"/>
		</g>
		<path class="st3" d="M49.9,100.2c0,0,0,19,0,29.2c0,12.6,5.6,26.5,30.4,26.5c24.8,0,27.7-16.6,27.7-25.1c0-10.5,0-82.1,0-93.3
			c0-11.2,5.9-30.2,29-30.2c23.1,0,29,14.6,29,30.9c0,6.8,0,14.3,0,14.3"/>
	</g>
	<ellipse class="st4" cx="99.5" cy="209.7" rx="99.5" ry="7.3"/>
</g>
</svg>
