<?xml version="1.0" encoding="utf-8"?>
<!-- Generator: Adobe Illustrator 19.0.0, SVG Export Plug-In . SVG Version: 6.00 Build 0)  -->
<svg version="1.1" id="Layer_1" xmlns="http://www.w3.org/2000/svg" xmlns:xlink="http://www.w3.org/1999/xlink" x="0px" y="0px"
	 viewBox="0 0 231.5 256.7" style="enable-background:new 0 0 231.5 256.7;" xml:space="preserve">
<style type="text/css">
	.st0{fill:#5B1519;}
	.st1{fill:#FFFFFF;}
	.st2{fill:#EE7C32;}
	.st3{fill:#A2BF36;}
</style>
<path class="st0" d="M85.7,150.2c-3-2.5-3.4-6.9-0.9-9.9l0,0c2.5-3,6.9-3.4,9.9-0.9l85.9,70.9c3,2.5,3.4,6.9,0.9,9.9l0,0
	c-2.5,3-6.9,3.4-9.9,0.9"/>
<path class="st0" d="M50,220.2c2.5,3,6.9,3.4,9.9,0.9l85.9-70.9c3-2.5,3.4-6.9,0.9-9.9l0,0c-2.5-3-6.9-3.4-9.9-0.9l-85.9,70.9
	C47.9,212.7,47.5,217.2,50,220.2L50,220.2z"/>
<g>
	<g>
		<path class="st0" d="M173.7,222.7"/>
		<rect x="9.7" y="9.6" class="st1" width="212.2" height="154.6"/>
		<rect x="72.3" y="200.3" class="st0" width="86.8" height="4.8"/>
		<path class="st2" d="M167.4,130.5H64c-3.4,0-6.1-2.7-6.1-6.1V49.3c0-3.4,2.7-6.1,6.1-6.1h103.5c3.4,0,6.1,2.8,6.1,6.1v75.1
			C173.5,127.7,170.8,130.5,167.4,130.5L167.4,130.5z M167.4,130.5"/>
		<path class="st1" d="M101.7,65.8l36.5,21.1l-36.5,21.1V65.8z M101.7,65.8"/>
	</g>
</g>
<ellipse class="st3" cx="115.7" cy="249.4" rx="99.5" ry="7.3"/>
<path class="st0" d="M231.5,5c0,2.8-2.2,5-5,5H5c-2.8,0-5-2.2-5-5l0,0c0-2.8,2.2-5,5-5h221.5C229.3,0,231.5,2.2,231.5,5L231.5,5z"/>
<path class="st0" d="M231.5,164.1c0,2.8-2.2,5-5,5H5c-2.8,0-5-2.2-5-5l0,0c0-2.8,2.2-5,5-5h221.5
	C229.3,159.1,231.5,161.4,231.5,164.1L231.5,164.1z"/>
</svg>
