<?xml version="1.0" encoding="utf-8"?>
<!-- Generator: Adobe Illustrator 19.0.0, SVG Export Plug-In . SVG Version: 6.00 Build 0)  -->
<svg version="1.1" xmlns="http://www.w3.org/2000/svg" xmlns:xlink="http://www.w3.org/1999/xlink" x="0px" y="0px"
	 viewBox="0 0 201.3 237.6" enable-background="new 0 0 201.3 237.6" xml:space="preserve">
<g id="Layer_2">
	<circle fill="#DEB342" cx="90.8" cy="122.6" r="90.8"/>
</g>
<g id="Layer_1">
	<g>
		<path fill="#5B1519" d="M189.3,0H74.3c0,0-0.1,0-0.1,0c0,0-0.1,0-0.1,0c-0.2,0-0.3,0-0.5,0.1c0,0,0,0,0,0c-0.2,0-0.3,0.1-0.5,0.1
			c0,0-0.1,0-0.1,0c-0.2,0.1-0.3,0.1-0.4,0.2c0,0,0,0,0,0c-0.1,0.1-0.3,0.2-0.4,0.3c0,0-0.1,0-0.1,0.1c-0.1,0.1-0.3,0.2-0.4,0.3
			c0,0,0,0,0,0l-41,41l0,0c-0.1,0.1-0.2,0.3-0.3,0.4c0,0,0,0.1-0.1,0.1c-0.1,0.1-0.2,0.3-0.3,0.4c0,0,0,0,0,0
			c-0.1,0.1-0.1,0.3-0.2,0.4c0,0,0,0.1,0,0.1c-0.1,0.2-0.1,0.3-0.1,0.5c0,0,0,0,0,0c0,0.2,0,0.3-0.1,0.5c0,0,0,0.1,0,0.1
			c0,0,0,0.1,0,0.1v180.6c0,6.6,5.4,12.1,12.1,12.1h147.8c6.6,0,12.1-5.4,12.1-12.1V12.1C201.3,5.4,195.9,0,189.3,0z M70.5,13.1
			v23.5c0,2.4-2,4.4-4.4,4.4H42.6L70.5,13.1z M193.6,225.5c0,2.4-2,4.4-4.4,4.4H41.5c-2.4,0-4.4-2-4.4-4.4V48.7h29
			c6.6,0,12.1-5.4,12.1-12.1v-29h111.1c2.4,0,4.4,2,4.4,4.4V225.5z"/>
		<path fill="#5B1519" d="M66.1,65.2h98.5c2.1,0,3.8-1.7,3.8-3.8c0-2.1-1.7-3.8-3.8-3.8H66.1c-2.1,0-3.8,1.7-3.8,3.8
			C62.3,63.4,64,65.2,66.1,65.2z"/>
		<path fill="#5B1519" d="M66.1,85.7h98.5c2.1,0,3.8-1.7,3.8-3.8s-1.7-3.8-3.8-3.8H66.1c-2.1,0-3.8,1.7-3.8,3.8S64,85.7,66.1,85.7z"
			/>
		<path fill="#5B1519" d="M66.1,106.2h98.5c2.1,0,3.8-1.7,3.8-3.8c0-2.1-1.7-3.8-3.8-3.8H66.1c-2.1,0-3.8,1.7-3.8,3.8
			C62.3,104.5,64,106.2,66.1,106.2z"/>
		<path fill="#5B1519" d="M66.1,126.7h98.5c2.1,0,3.8-1.7,3.8-3.8c0-2.1-1.7-3.8-3.8-3.8H66.1c-2.1,0-3.8,1.7-3.8,3.8
			C62.3,125,64,126.7,66.1,126.7z"/>
		<path fill="#5B1519" d="M66.1,147.3h98.5c2.1,0,3.8-1.7,3.8-3.8c0-2.1-1.7-3.8-3.8-3.8H66.1c-2.1,0-3.8,1.7-3.8,3.8
			C62.3,145.5,64,147.3,66.1,147.3z"/>
		<path fill="#5B1519" d="M115.4,168.3H66.1c-2.1,0-3.8,1.7-3.8,3.8c0,2.1,1.7,3.8,3.8,3.8h49.3c2.1,0,3.8-1.7,3.8-3.8
			C119.2,170,117.5,168.3,115.4,168.3z"/>
		<path fill="#5B1519" d="M115.4,188.8H66.1c-2.1,0-3.8,1.7-3.8,3.8s1.7,3.8,3.8,3.8h49.3c2.1,0,3.8-1.7,3.8-3.8
			S117.5,188.8,115.4,188.8z"/>
		<path fill="#5B1519" d="M150.3,176.5c-3.3,0-5.9,2.6-5.9,5.9c0,3.3,2.6,5.9,5.9,5.9c3.3,0,5.9-2.6,5.9-5.9
			C156.2,179.2,153.5,176.5,150.3,176.5z"/>
		<path fill="#5B1519" d="M150.3,160.1c-12.3,0-22.3,10-22.3,22.3c0,12.3,10,22.3,22.3,22.3c12.3,0,22.3-10,22.3-22.3
			C172.6,170.1,162.6,160.1,150.3,160.1z M150.3,197c-8.1,0-14.6-6.6-14.6-14.6c0-8.1,6.6-14.6,14.6-14.6c8.1,0,14.6,6.6,14.6,14.6
			C164.9,190.5,158.3,197,150.3,197z"/>
	</g>
</g>
</svg>
