<?xml version="1.0" encoding="utf-8"?>
<!-- Generator: Adobe Illustrator 19.0.0, SVG Export Plug-In . SVG Version: 6.00 Build 0)  -->
<svg version="1.1" id="Layer_1" xmlns="http://www.w3.org/2000/svg" xmlns:xlink="http://www.w3.org/1999/xlink" x="0px" y="0px"
	 viewBox="0 0 199.1 216.6" style="enable-background:new 0 0 199.1 216.6;" xml:space="preserve">
<style type="text/css">
	.st0{fill:#FFCF06;}
	.st1{fill:#429B8F;}
	.st2{fill:#4DBDF4;}
	.st3{fill:#D66729;}
	.st4{fill:#5B1519;}
	.st5{clip-path:url(#SVGID_2_);fill:#5B1519;}
	.st6{fill:#EE7C32;}
	.st7{fill:#FFFFFF;}
	.st8{fill:#A2BF36;}
</style>
<g>
	<g>
		<polygon class="st0" points="126.4,156.4 178.4,124.5 176.7,65.7 126.4,94.3 		"/>
		<polygon class="st1" points="20.6,35.4 126.1,92.1 178.4,63.8 75.3,11.6 		"/>
		<g>
			<path class="st2" d="M117,66.8v10.4c0,0,3.4,3.8,9.4,3.8c5.9,0,9.7-3.7,9.7-3.7V66.8c0,0-3.9,2.3-9.5,2.3
				C120.9,69.1,117,66.8,117,66.8z"/>
			<path class="st2" d="M117,63.7c0,0,5.3-4.8,9.4-4.8c4,0,9.6,4.8,9.6,4.8s-5.9,4.6-9.6,4.6C122.8,68.4,117,63.7,117,63.7z"/>
		</g>
		<g>
			<path class="st2" d="M90.5,52.1v10.4c0,0,3.4,3.8,9.4,3.8c5.9,0,9.7-3.7,9.7-3.7V52.1c0,0-3.9,2.3-9.5,2.3
				C94.4,54.4,90.5,52.1,90.5,52.1z"/>
			<path class="st2" d="M90.5,49.1c0,0,5.3-4.8,9.4-4.8c4,0,9.6,4.8,9.6,4.8s-5.9,4.6-9.6,4.6C96.2,53.7,90.5,49.1,90.5,49.1z"/>
		</g>
		<g>
			<path class="st2" d="M64.9,38.4v10.4c0,0,3.4,3.8,9.4,3.8c5.9,0,9.7-3.7,9.7-3.7V38.4c0,0-3.9,2.3-9.5,2.3S64.9,38.4,64.9,38.4z"
				/>
			<path class="st2" d="M64.9,35.3c0,0,5.3-4.8,9.4-4.8c4,0,9.6,4.8,9.6,4.8S78,40,74.4,40C70.7,40,64.9,35.3,64.9,35.3z"/>
		</g>
		<g>
			<path class="st2" d="M39.3,24.6V35c0,0,3.4,3.8,9.4,3.8s9.7-3.7,9.7-3.7V24.6c0,0-3.9,2.3-9.5,2.3C43.2,26.9,39.3,24.6,39.3,24.6
				z"/>
			<path class="st2" d="M39.3,21.6c0,0,5.3-4.8,9.4-4.8c4,0,9.6,4.8,9.6,4.8s-5.9,4.6-9.6,4.6C45.1,26.2,39.3,21.6,39.3,21.6z"/>
		</g>
		<g>
			<path class="st2" d="M65.7,9.6v10.4c0,0,3.4,3.8,9.4,3.8c5.9,0,9.7-3.7,9.7-3.7V9.6c0,0-3.9,2.3-9.5,2.3
				C69.6,11.9,65.7,9.6,65.7,9.6z"/>
			<path class="st2" d="M65.7,6.5c0,0,5.3-4.8,9.4-4.8c4,0,9.6,4.8,9.6,4.8s-5.9,4.6-9.6,4.6C71.5,11.2,65.7,6.5,65.7,6.5z"/>
		</g>
		<g>
			<path class="st2" d="M91.2,23.9v10.4c0,0,3.4,3.8,9.4,3.8c5.9,0,9.7-3.7,9.7-3.7V23.9c0,0-3.9,2.3-9.5,2.3
				C95.1,26.2,91.2,23.9,91.2,23.9z"/>
			<path class="st2" d="M91.2,20.9c0,0,5.3-4.8,9.4-4.8c4,0,9.6,4.8,9.6,4.8s-5.9,4.6-9.6,4.6C97,25.5,91.2,20.9,91.2,20.9z"/>
		</g>
		<g>
			<path class="st2" d="M116.8,38.3v10.4c0,0,3.4,3.8,9.4,3.8c5.9,0,9.7-3.7,9.7-3.7V38.3c0,0-3.9,2.3-9.5,2.3
				C120.7,40.6,116.8,38.3,116.8,38.3z"/>
			<path class="st2" d="M116.8,35.3c0,0,5.3-4.8,9.4-4.8c4,0,9.6,4.8,9.6,4.8s-5.9,4.6-9.6,4.6S116.8,35.3,116.8,35.3z"/>
		</g>
		<g>
			<path class="st2" d="M143.6,52.6V63c0,0,3.4,3.8,9.4,3.8c5.9,0,9.7-3.7,9.7-3.7V52.6c0,0-3.9,2.3-9.5,2.3
				C147.6,54.9,143.6,52.6,143.6,52.6z"/>
			<path class="st2" d="M143.6,49.6c0,0,5.3-4.8,9.4-4.8c4,0,9.6,4.8,9.6,4.8s-5.9,4.6-9.6,4.6C149.4,54.2,143.6,49.6,143.6,49.6z"
				/>
		</g>
		<polygon class="st3" points="17.8,35.2 126.1,92.1 126.4,156.4 17.8,95.8 		"/>
		<g>
			<path class="st4" d="M126.4,70.7L126.4,70.7c-6.9,0-11.9-3-11.9-7c0-4,5-6.9,11.8-6.9c7,0,11.9,3,11.9,7
				C138.2,67.8,133.2,70.7,126.4,70.7L126.4,70.7z M126.4,61.4c-4.9,0-7.3,1.9-7.3,2.3c0,0.5,2.3,2.3,7.2,2.4l0.1,2.3v-2.3
				c4.9,0,7.2-1.9,7.2-2.3C133.6,63.3,131.3,61.4,126.4,61.4L126.4,61.4z M126.4,61.4"/>
			<path class="st4" d="M126.4,83.4L126.4,83.4c-3,0-5.7-0.6-7.8-1.6c-3.5-1.7-4.1-4.1-4-5.4l0.1-12.7c0-1.3,1-2.3,2.3-2.3h0
				c1.3,0,2.3,1,2.3,2.3l-0.1,12.7c0,0.1,0.3,0.6,1.5,1.2c1.5,0.7,3.6,1.1,5.7,1.2h0.1c4.9,0,7.2-1.9,7.2-2.3l0.1-12.7
				c0-1.3,1-2.3,2.3-2.3h0c1.3,0,2.3,1,2.3,2.3l-0.1,12.7C138.1,80.4,133.1,83.4,126.4,83.4L126.4,83.4z M126.4,83.4"/>
			<path class="st4" d="M153,56.1h-0.1c-6.9,0-11.8-3-11.8-7c0-4,5-6.9,11.8-6.9c6.9,0,11.9,3,11.9,7
				C164.7,53.2,159.8,56.1,153,56.1L153,56.1z M152.9,46.8c-4.9,0-7.2,1.9-7.2,2.3c0,0.5,2.3,2.3,7.2,2.4l0.1,2.3v-2.3
				c4.9,0,7.2-1.8,7.2-2.3C160.2,48.7,157.8,46.8,152.9,46.8L152.9,46.8z M152.9,46.8"/>
			<path class="st4" d="M152.9,68.8L152.9,68.8c-6.9,0-11.9-3-11.9-7l0.1-12.7c0-1.3,1-2.3,2.3-2.3h0c1.3,0,2.3,1,2.3,2.3l-0.1,12.7
				c0,0.5,2.3,2.3,7.2,2.4c5.1,0,7.2-1.9,7.2-2.3l0.1-12.7c0-1.2,1-2.3,2.3-2.3h0c1.3,0,2.3,1,2.3,2.3l-0.1,12.7
				C164.7,65.9,159.7,68.8,152.9,68.8L152.9,68.8z M152.9,68.8"/>
			<path class="st4" d="M100,56.3h-0.1c-4.3,0-8.2-1.3-10.2-3.3c-1.1-1.1-1.6-2.3-1.6-3.6c0-4,5-6.9,11.8-6.9c6.9,0,11.9,3,11.9,7
				C111.8,53.4,106.8,56.3,100,56.3L100,56.3z M100,47c-4.9,0-7.2,1.9-7.2,2.3c0,0,0.1,0.2,0.3,0.4c0.9,0.9,3.5,1.9,7,2L100,54v-2.3
				c4.9,0,7.2-1.9,7.2-2.3C107.2,49,104.9,47.1,100,47L100,47z M100,47"/>
			<path class="st4" d="M100,69.1h-0.1c-6.9,0-11.8-3-11.8-7l0.1-12.7c0-1.3,1-2.2,2.3-2.3c1.3,0,2.3,1,2.3,2.3l-0.1,12.7
				c0,0.5,2.3,2.3,7.2,2.4h0.1c4.9,0,7.2-1.9,7.2-2.3l0.1-12.7c0-1.3,0.9-2.3,2.3-2.3c1.3,0,2.3,1,2.3,2.3l-0.1,12.7
				C111.7,66.2,106.8,69.1,100,69.1L100,69.1z M100,69.1"/>
			<path class="st4" d="M126.1,41.5H126c-6.9,0-11.8-3-11.8-7c0-4,5-6.9,11.8-6.9c6.9,0,11.9,3,11.9,7
				C137.9,38.7,132.9,41.5,126.1,41.5L126.1,41.5z M126.1,32.3c-4.9,0-7.2,1.9-7.2,2.3c0,0.5,2.3,2.4,7.2,2.4l0.1,2.3V37
				c4.9,0,7.2-1.8,7.2-2.3C133.3,34.2,131,32.3,126.1,32.3L126.1,32.3z M126.1,32.3"/>
			<path class="st4" d="M126.1,54.3L126.1,54.3c-6.9,0-11.9-3-11.9-7l0.1-12.7c0-1.3,1-2.3,2.3-2.3c1.3,0,2.3,1,2.3,2.3l-0.1,12.7
				c0,0.5,2.3,2.4,7.2,2.4c3.5-0.1,6-1,7-1.9c0.2-0.2,0.3-0.4,0.3-0.4l0-12.7c0-1.3,1-2.3,2.3-2.3c1.3,0,2.3,1,2.3,2.3l-0.1,12.7
				c0,1.3-0.6,2.6-1.6,3.6C134.2,53.1,130.4,54.3,126.1,54.3L126.1,54.3z M126.1,54.3"/>
			<path class="st4" d="M74.5,42.3L74.5,42.3c-6.9,0-11.9-3-11.9-7c0-4,5-6.9,11.8-6.9c4.4,0,8.2,1.3,10.3,3.3
				c1.1,1.1,1.6,2.3,1.6,3.6C86.3,39.4,81.3,42.3,74.5,42.3L74.5,42.3z M74.4,33c-4.9,0-7.2,1.9-7.2,2.3c0,0.5,2.3,2.4,7.2,2.4
				l0.1,2.3v-2.3c4.9,0,7.2-1.9,7.2-2.3c0,0-0.1-0.2-0.3-0.4C80.5,34.1,77.9,33.1,74.4,33L74.4,33z M74.4,33"/>
			<path class="st4" d="M74.4,55L74.4,55c-4.4,0-8.2-1.3-10.3-3.3c-1.1-1.1-1.6-2.3-1.6-3.7l0.1-12.7c0-1.3,1-2.3,2.3-2.3
				c1.3,0,2.3,1,2.3,2.3l-0.1,12.7c0,0,0.1,0.2,0.3,0.4c0.9,0.9,3.5,1.9,7,2h0.1c3.4,0,6-1,6.9-1.9c0.2-0.2,0.3-0.4,0.3-0.4
				l0.1-12.7c0-1.3,1-2.3,2.3-2.3c1.3,0,2.3,1,2.3,2.3l-0.1,12.7c0,1.3-0.6,2.6-1.6,3.6C82.5,53.8,78.8,55,74.4,55L74.4,55z
				 M74.4,55"/>
			<path class="st4" d="M101,27.8h-0.1c-4.3,0-8.1-1.3-10.2-3.3c-1.1-1.1-1.6-2.3-1.6-3.7c0-4,5-6.9,11.8-6.9c7,0,11.9,3,11.9,7
				C112.8,24.9,107.8,27.8,101,27.8L101,27.8z M101,18.5c-4.9,0-7.2,1.9-7.2,2.3c0,0,0,0.2,0.3,0.4c0.9,0.9,3.5,2,7,2l0.1,2.3v-2.3
				c4.9,0,7.2-1.9,7.2-2.3C108.2,20.4,105.9,18.5,101,18.5L101,18.5z M101,18.5"/>
			<path class="st4" d="M101,40.5h-0.1c-4.3,0-8.1-1.3-10.2-3.3c-1.1-1.1-1.6-2.3-1.6-3.7l0.1-12.7c0-1.3,1-2.3,2.3-2.3h0
				c1.3,0,2.3,1,2.3,2.3l-0.1,12.7c0,0,0.1,0.2,0.3,0.4c0.9,0.9,3.5,1.9,7,2h0.1c4.9,0,7.2-1.9,7.2-2.3l0.1-12.7
				c0-1.3,1-2.3,2.3-2.3h0c1.3,0,2.3,1,2.3,2.3l-0.1,12.7C112.7,37.6,107.8,40.5,101,40.5L101,40.5z M101,40.5"/>
			<path class="st4" d="M48.5,28.4h-0.1c-6.8,0-11.8-3-11.8-7c0-4,5-6.9,11.8-6.9c6.9,0,11.9,3,11.9,7
				C60.3,25.5,55.3,28.4,48.5,28.4L48.5,28.4z M48.5,19.1c-4.9,0-7.3,1.9-7.3,2.3c0,0.5,2.3,2.3,7.2,2.4l0.1,2.3v-2.3
				c4.9,0,7.2-1.9,7.2-2.3C55.7,21.1,53.4,19.2,48.5,19.1L48.5,19.1z M48.5,19.1"/>
			<path class="st4" d="M48.5,41.1h-0.1c-6.8,0-11.8-3-11.8-7l0.1-12.7c0-1.3,1-2.3,2.3-2.3h0c1.2,0,2.3,1,2.3,2.3l-0.1,12.7
				c0,0.5,2.3,2.3,7.2,2.4c2.2,0.1,4.3-0.4,5.7-1.1c1.2-0.6,1.5-1.1,1.5-1.2l0-12.7c0-1.3,1-2.3,2.3-2.3h0c1.3,0,2.3,1,2.3,2.3
				l-0.1,12.7c0,1.3-0.5,3.6-4.1,5.3C54,40.6,51.3,41.1,48.5,41.1L48.5,41.1z M48.5,41.1"/>
			<path class="st4" d="M75.3,13.9L75.3,13.9c-7,0-11.9-3-11.9-7c0-4,5-6.9,11.8-6.9c7,0,11.9,3,11.9,7C87,11,82.1,13.9,75.3,13.9
				L75.3,13.9z M75.2,4.6c-4.9,0-7.3,1.9-7.3,2.3c0,0.5,2.3,2.3,7.2,2.4l0.1,2.3V9.3c4.9,0,7.2-1.9,7.2-2.3
				C82.5,6.5,80.1,4.6,75.2,4.6L75.2,4.6z M75.2,4.6"/>
			<g>
				<defs>
					<rect id="SVGID_1_" x="13.9" width="170.1" height="161.9"/>
				</defs>
				<clipPath id="SVGID_2_">
					<use xlink:href="#SVGID_1_"  style="overflow:visible;"/>
				</clipPath>
				<path class="st5" d="M75.2,26.6h-0.1c-6.8,0-11.8-3-11.8-7l0.1-12.7c0-1.3,1-2.3,2.3-2.3h0c1.3,0,2.3,1,2.3,2.3l-0.1,12.7
					c0,0.5,2.3,2.4,7.2,2.4h0.1c4.9,0,7.2-1.9,7.2-2.3L82.5,7c0-1.3,1-2.3,2.3-2.3h0C86,4.7,87,5.7,87,7L87,19.7
					C87,23.7,82,26.6,75.2,26.6L75.2,26.6z M75.2,26.6"/>
				<path class="st5" d="M125.6,96.9c-0.6,0-1.1-0.1-1.7-0.4L15.7,37.8c-1.7-0.9-2.3-3-1.4-4.8c0.9-1.7,3-2.3,4.7-1.4l108.2,58.6
					c1.7,0.9,2.3,3,1.4,4.8C128,96.2,126.8,96.9,125.6,96.9L125.6,96.9z M125.6,96.9"/>
			</g>
			<path class="st4" d="M57.9,22.4c-1.4,0-2.7-0.8-3.2-2.2c-0.7-1.8,0.2-3.8,1.9-4.5l6.5-2.6c1.8-0.7,3.8,0.2,4.6,1.9
				c0.7,1.8-0.2,3.8-2,4.5l-6.5,2.6C58.8,22.3,58.3,22.4,57.9,22.4L57.9,22.4z M57.9,22.4"/>
			<path class="st4" d="M90.5,23.1c-0.5,0-1.1-0.1-1.6-0.4l-4.3-2.3c-1.7-0.9-2.4-3-1.5-4.7c0.9-1.7,3-2.4,4.7-1.5l4.3,2.3
				c1.7,0.9,2.4,3,1.5,4.7C93,22.5,91.7,23.1,90.5,23.1L90.5,23.1z M90.5,23.1"/>
			<path class="st4" d="M116.2,36.2c-0.6,0-1.1-0.1-1.7-0.4l-3.9-2.1c-1.7-0.9-2.3-3-1.4-4.7c0.9-1.7,3-2.3,4.7-1.4l3.9,2.1
				c1.7,0.9,2.3,3,1.4,4.7C118.7,35.5,117.5,36.2,116.2,36.2L116.2,36.2z M116.2,36.2"/>
			<path class="st4" d="M143.4,49.9c-0.5,0-1-0.1-1.5-0.4l-6.1-3c-1.7-0.9-2.4-3-1.6-4.7c0.8-1.7,2.9-2.5,4.7-1.6l6.1,3
				c1.7,0.8,2.4,3,1.6,4.7C145.9,49.2,144.7,49.9,143.4,49.9L143.4,49.9z M143.4,49.9"/>
			<path class="st4" d="M125.5,160.9c-0.6,0-1.2-0.2-1.7-0.4L15.7,100.5c-1.1-0.6-1.8-1.8-1.8-3.1V34.7c0-1.4,0.9-2.7,2.2-3.3
				l20-7.9c1.8-0.7,3.8,0.2,4.5,2c0.7,1.8-0.2,3.8-2,4.5l-17.8,7v58.3l101.1,56l0.1-58c0-1.3,0.7-2.4,1.8-3.1L176.5,61
				c1.7-0.9,3.8-0.3,4.8,1.4c0.9,1.7,0.3,3.8-1.3,4.8l-50.8,28.3l-0.1,61.9c0,1.2-0.7,2.4-1.7,3
				C126.7,160.7,126.1,160.9,125.5,160.9L125.5,160.9z M125.5,160.9"/>
			<path class="st4" d="M125.5,160.9c-1.2,0-2.4-0.6-3-1.7c-1-1.7-0.5-3.8,1.2-4.8l50.9-30.6V66.3l-12.4-6.1
				c-1.7-0.9-2.4-2.9-1.6-4.7c0.9-1.7,3-2.4,4.7-1.6l14.3,7c1.2,0.6,2,1.8,2,3.1v61.6c0,1.2-0.6,2.4-1.7,3l-52.6,31.6
				C126.8,160.7,126.1,160.9,125.5,160.9L125.5,160.9z M125.5,160.9"/>
		</g>
		<g>
			<path class="st6" d="M99.4,133.4l-58.3-32c-1.9-1-3.4-3.4-3.4-5.3V58c0-1.9,1.6-2.6,3.4-1.5l58.3,32c1.9,1,3.4,3.4,3.4,5.3v38.1
				C102.8,133.8,101.2,134.5,99.4,133.4L99.4,133.4z M99.4,133.4"/>
			<path class="st7" d="M62.3,78.7l20.6,23.2l-20.6,0.6V78.7z M62.3,78.7"/>
		</g>
	</g>
	<ellipse class="st8" cx="99.5" cy="209.3" rx="99.5" ry="7.3"/>
</g>
</svg>
