<?xml version="1.0" encoding="utf-8"?>
<!-- Generator: Adobe Illustrator 19.0.0, SVG Export Plug-In . SVG Version: 6.00 Build 0)  -->
<svg version="1.1" xmlns="http://www.w3.org/2000/svg" xmlns:xlink="http://www.w3.org/1999/xlink" x="0px" y="0px"
	 viewBox="0 0 240.1 240.7" enable-background="new 0 0 240.1 240.7" xml:space="preserve">
<g id="Layer_2">
	<circle fill="#F36B22" cx="149.3" cy="147.7" r="90.8"/>
</g>
<g id="Layer_1">
	<g>
		<path fill="#5B1519" d="M165.6,120.7H136c-1.5-5.8-6-10.3-11.8-11.8v-42c0-2.3-1.9-4.1-4.1-4.1c-2.3,0-4.1,1.9-4.1,4.1v42
			c-7.1,1.9-12.4,8.3-12.4,16c0,9.1,7.4,16.6,16.6,16.6c7.7,0,14.1-5.3,16-12.4h29.6c2.3,0,4.1-1.9,4.1-4.1
			C169.7,122.5,167.9,120.7,165.6,120.7z M120,133.1c-4.6,0-8.3-3.7-8.3-8.3c0-4.6,3.7-8.3,8.3-8.3c4.6,0,8.3,3.7,8.3,8.3
			C128.3,129.4,124.6,133.1,120,133.1z"/>
		<path fill="#5B1519" d="M207.4,40.4l17,17c0.8,0.8,1.8,1.2,2.9,1.2c1.1,0,2.2-0.4,2.9-1.2c13.1-13.1,13.1-34.4,0-47.5
			c-13.1-13.1-34.4-13.1-47.5,0c-0.8,0.8-1.2,1.8-1.2,2.9c0,1.1,0.4,2.2,1.2,2.9l18.9,18.9l-7,7c-19.8-17.7-45.9-28.5-74.5-28.5
			c-28.6,0-54.7,10.8-74.5,28.5l-7-7l18.9-18.9c0.8-0.8,1.2-1.8,1.2-2.9c0-1.1-0.4-2.2-1.2-2.9C44.3-3.3,22.9-3.3,9.8,9.8
			c-13.1,13.1-13.1,34.4,0,47.5c0.8,0.8,1.8,1.2,2.9,1.2s2.2-0.4,2.9-1.2l17-17l6.9,6.9C20.2,67.5,8.3,94.8,8.3,124.8
			c0,41,22.2,76.8,55.1,96.3l-12.5,12.5c-1.6,1.6-1.6,4.2,0,5.9c0.8,0.8,1.9,1.2,2.9,1.2c1.1,0,2.1-0.4,2.9-1.2L71,225.2
			c14.8,7.3,31.4,11.4,49,11.4c17.6,0,34.2-4.1,49-11.4l14.3,14.3c0.8,0.8,1.9,1.2,2.9,1.2c1.1,0,2.1-0.4,2.9-1.2
			c1.6-1.6,1.6-4.2,0-5.9l-12.5-12.5c33-19.5,55.1-55.3,55.1-96.3c0-30.1-11.9-57.4-31.3-77.5L207.4,40.4z M224.4,15.7
			c8.9,8.9,9.8,22.8,2.7,32.7L191.7,13C201.6,5.9,215.5,6.8,224.4,15.7z M13,48.4c-7.1-9.9-6.2-23.8,2.7-32.7
			c8.9-8.9,22.8-9.8,32.7-2.7L13,48.4z M120,228.3c-57.1,0-103.5-46.4-103.5-103.5C16.5,67.8,63,21.3,120,21.3
			c57.1,0,103.5,46.4,103.5,103.5C223.5,181.9,177.1,228.3,120,228.3z"/>
		<path fill="#5B1519" d="M120,41.5c2.3,0,4.1-1.9,4.1-4.1v-4.1c0-2.3-1.9-4.1-4.1-4.1c-2.3,0-4.1,1.9-4.1,4.1v4.1
			C115.9,39.7,117.8,41.5,120,41.5z"/>
		<path fill="#5B1519" d="M120,207.1c-2.3,0-4.1,1.8-4.1,4.1v4.1c0,2.3,1.9,4.1,4.1,4.1c2.3,0,4.1-1.8,4.1-4.1v-4.1
			C124.2,209,122.3,207.1,120,207.1z"/>
		<path fill="#5B1519" d="M207,128.5h4.1c2.3,0,4.1-1.9,4.1-4.1s-1.9-4.1-4.1-4.1H207c-2.3,0-4.1,1.9-4.1,4.1S204.7,128.5,207,128.5
			z"/>
		<path fill="#5B1519" d="M33.1,120.2H29c-2.3,0-4.1,1.9-4.1,4.1s1.9,4.1,4.1,4.1h4.1c2.3,0,4.1-1.9,4.1-4.1S35.4,120.2,33.1,120.2z
			"/>
		<path fill="#5B1519" d="M181.5,57l-2.9,2.9c-1.6,1.6-1.6,4.2,0,5.9c0.8,0.8,1.9,1.2,2.9,1.2c1.1,0,2.1-0.4,2.9-1.2l2.9-2.9
			c1.6-1.6,1.6-4.2,0-5.9C185.7,55.4,183.1,55.4,181.5,57z"/>
		<path fill="#5B1519" d="M55.6,182.9l-2.9,2.9c-1.6,1.6-1.6,4.2,0,5.9c0.8,0.8,1.9,1.2,2.9,1.2c1.1,0,2.1-0.4,2.9-1.2l2.9-2.9
			c1.6-1.6,1.6-4.2,0-5.9C59.9,181.2,57.3,181.3,55.6,182.9z"/>
		<path fill="#5B1519" d="M184.4,182.9c-1.6-1.6-4.2-1.6-5.9,0c-1.6,1.6-1.6,4.2,0,5.9l2.9,2.9c0.8,0.8,1.9,1.2,2.9,1.2
			c1.1,0,2.1-0.4,2.9-1.2c1.6-1.6,1.6-4.2,0-5.9L184.4,182.9z"/>
		<path fill="#5B1519" d="M58.6,57c-1.6-1.6-4.2-1.6-5.9,0c-1.6,1.6-1.6,4.2,0,5.9l2.9,2.9c0.8,0.8,1.9,1.2,2.9,1.2
			c1.1,0,2.1-0.4,2.9-1.2c1.6-1.6,1.6-4.2,0-5.9L58.6,57z"/>
	</g>
</g>
</svg>
