<?xml version="1.0" encoding="utf-8"?>
<!-- Generator: Adobe Illustrator 19.0.0, SVG Export Plug-In . SVG Version: 6.00 Build 0)  -->
<svg version="1.1" xmlns="http://www.w3.org/2000/svg" xmlns:xlink="http://www.w3.org/1999/xlink" x="0px" y="0px"
	 viewBox="0 0 307.1 240.9" enable-background="new 0 0 307.1 240.9" xml:space="preserve">
<g id="Layer_2">
	<circle fill="#FFCF06" cx="112.5" cy="105.7" r="90.8"/>
</g>
<g id="Layer_1">
	<g>
		<path fill="#5B1519" d="M69.3,119.1c1.9,0,3.5-1.6,3.5-3.5s-1.6-3.5-3.5-3.5c-32,0-58,26.3-58,58.7c0,1.9,1.6,3.5,3.5,3.5
			c1.9,0,3.5-1.6,3.5-3.5C18.2,142.3,41.2,119.1,69.3,119.1z"/>
		<path fill="#5B1519" d="M68.1,125.9c-24.5,0-44.4,20.2-44.4,44.9c0,24.8,19.9,44.9,44.4,44.9s44.4-20.2,44.4-44.9
			C112.5,146,92.6,125.9,68.1,125.9z M68.1,208.8c-20.7,0-37.5-17-37.5-38c0-20.9,16.8-38,37.5-38c20.7,0,37.5,17,37.5,38
			C105.6,191.7,88.8,208.8,68.1,208.8z"/>
		<path fill="#5B1519" d="M238.6,112.5c-1.9,0-3.5,1.6-3.5,3.5c0,1.9,1.6,3.5,3.5,3.5c28.2,0,51.1,23.2,51.1,51.7
			c0,1.9,1.6,3.5,3.5,3.5c1.9,0,3.5-1.6,3.5-3.5C296.7,138.8,270.6,112.5,238.6,112.5z"/>
		<path fill="#5B1519" d="M237.2,125.9c-24.5,0-44.4,20.2-44.4,44.9c0,24.8,19.9,44.9,44.4,44.9c24.5,0,44.4-20.2,44.4-44.9
			C281.6,146,261.7,125.9,237.2,125.9z M237.2,208.8c-20.7,0-37.5-17-37.5-38c0-20.9,16.8-38,37.5-38c20.7,0,37.5,17,37.5,38
			C274.7,191.7,257.8,208.8,237.2,208.8z"/>
		<path fill="#5B1519" d="M294.3,130.2c-0.1-0.1-0.2-0.3-0.3-0.4l-58.2-79.7c-0.4-0.5-0.8-1.1-1.1-1.6l-8.6-11.8
			c0,0-0.1-0.1-0.1-0.1c-4.6-6.9-11-12-18.7-14.8l-9.1-12.4c-5.8-7.6-10.1-9-17.2-9.4c-0.3,0-0.6,0-0.9,0c-5.7,0-11.4,2.6-15.3,6.9
			c-3.8,4.1-5.5,9.5-4.8,14.7l0.4,3.9c0,0,1.4,13.2,1.4,13.2c-2,3.4-3.4,7.1-4.2,10.9c-1.2-0.5-2.5-0.8-3.8-0.8
			c-1.3,0-2.6,0.3-3.8,0.8c-0.8-3.6-2.2-7.1-4-10.4l1.5-13.7l0.4-3.8c0.7-5.2-1.1-10.6-4.8-14.8C138.8,2.6,133,0,127.4,0
			c-0.3,0-0.6,0-0.9,0c-7.2,0.3-11.5,1.8-17.3,9.4l-8.9,12.2c-7.8,2.7-14.6,8-19.2,15c0,0-0.1,0.1-0.1,0.1l-67.9,93
			c-0.1,0.2-0.2,0.4-0.3,0.6C4.4,142.3,0,156.2,0,170.8c0,38.6,31.1,70.1,69.3,70.1c32.8,0,61.1-23.2,67.8-55.5
			c4.1,4.7,10.1,7.5,16.4,7.5c6.3,0,12.3-2.8,16.4-7.5c6.8,32.3,35,55.5,67.8,55.5c38.2,0,69.3-31.4,69.3-70.1
			C307.1,156.2,302.6,142.2,294.3,130.2z M237.7,233.9c-34.4,0-62.4-28.3-62.4-63.1c0-34.8,28-63.1,62.4-63.1
			c34.4,0,62.4,28.3,62.4,63.1C300.1,205.6,272.1,233.9,237.7,233.9z M194.4,26.5c7.1,0,14,2.5,19.5,7c-4.3-1.5-8.7-2.2-13.3-2.2
			c-11.4,0-22.1,4.5-30.1,12.6c-2.6,2.7-4.9,5.7-6.7,8.9C166.2,38,179.1,26.5,194.4,26.5z M200.6,38.3c11.1,0,21.5,5.3,28.5,14.4
			l1.1,1.4c0,0,0.3,0.4,0.4,0.6c0.1,0.1,0.1,0.2,0.2,0.2l39.3,53.8c-9.9-5.3-21-8.1-32.3-8.1c-29.1,0-54.7,18.1-64.9,45.4l-7.7-71.9
			C165.2,54.4,181.1,38.3,200.6,38.3z M194.4,19.6c-10,0-19.6,4-26.7,11.1l-0.6-5.9l-0.4-3.9l0-0.1c-0.5-3.2,0.6-6.5,3.1-9.2
			C172.4,8.7,176.2,7,180,7c0.2,0,0.4,0,0.6,0c5.3,0.3,7.7,0.9,12,6.6l4.5,6.1C196.1,19.6,195.3,19.6,194.4,19.6z M153.5,185.9
			c-8.2,0-14.9-6.8-14.9-15.1c0-8.3,6.7-15.1,14.9-15.1c8.2,0,14.9,6.8,14.9,15.1C168.4,179.1,161.7,185.9,153.5,185.9z M150.6,58.3
			c0.2-1.5,1.4-2.6,2.9-2.6c1.4,0,2.7,1.1,2.9,2.6l0.8,7.5c0,0.1,0,0.1,0,0.2l9.4,87.2c-3.8-2.9-8.3-4.4-13.1-4.4
			c-4.7,0-9.3,1.5-13.1,4.4l9.4-87.2L150.6,58.3z M69.3,233.9C34.9,233.9,7,205.6,7,170.8c0-34.8,28-63.1,62.4-63.1
			c34.4,0,62.4,28.3,62.4,63.1C131.7,205.6,103.7,233.9,69.3,233.9z M110.7,114.6c-12-9.1-26.3-13.9-41.3-13.9
			c-11.3,0-22.4,2.8-32.3,8.1l39.1-53.5c0.2-0.2,0.4-0.4,0.5-0.6c6.9-10.3,18.1-16.4,29.9-16.4c19.5,0,35.4,16.1,35.4,36
			c0,0.1,0,0.1,0,0.2l-7.7,71.6C129.6,133.7,121.3,122.6,110.7,114.6z M93.1,33.6c5.5-4.5,12.4-7,19.5-7c15.2,0,28.1,11.4,30.6,26.2
			c-1.8-3.2-4.1-6.2-6.7-8.8c-8-8.1-18.6-12.6-30-12.6C101.9,31.3,97.4,32.1,93.1,33.6z M140.7,20.7l0,0.1l-0.4,3.9l-0.7,6.2
			c-7.1-7.2-16.8-11.4-26.9-11.4c-0.8,0-1.5,0-2.3,0.1l4.4-6c4.4-5.8,6.8-6.4,12-6.6c0.2,0,0.4,0,0.6,0c3.8,0,7.6,1.7,10.2,4.6
			C140,14.2,141.1,17.5,140.7,20.7z"/>
	</g>
</g>
</svg>
